<?xml version="1.0" encoding="iso-8859-1"?>
<!-- Generator: Adobe Illustrator 18.0.0, SVG Export Plug-In . SVG Version: 6.00 Build 0)  -->
<!DOCTYPE svg PUBLIC "-//W3C//DTD SVG 1.1//EN" "http://www.w3.org/Graphics/SVG/1.1/DTD/svg11.dtd">
<svg xmlns="http://www.w3.org/2000/svg" xmlns:xlink="http://www.w3.org/1999/xlink" version="1.1" id="Capa_1" x="0px" y="0px" viewBox="0 0 183.792 183.792" style="enable-background:new 0 0 183.792 183.792;" xml:space="preserve" width="512px" height="512px">
<path d="M30.027,101.259c12.022,20.823,34.441,33.759,58.508,33.759c7.598,0,15.138-1.308,22.287-3.818l30.364,52.592l21.65-12.5  l-30.359-52.583c10.255-8.774,17.638-20.411,21.206-33.73c4.666-17.415,2.271-35.605-6.744-51.22C134.918,12.936,112.499,0,88.433,0  C76.645,0,64.992,3.13,54.734,9.053c-15.614,9.015-26.784,23.571-31.45,40.986C18.618,67.455,21.012,85.645,30.027,101.259z   M47.432,56.51c2.938-10.965,9.971-20.13,19.802-25.807C73.697,26.972,81.027,25,88.433,25c15.163,0,29.286,8.146,36.857,21.259  c5.676,9.831,7.184,21.285,4.246,32.25c-2.938,10.965-9.97,20.13-19.802,25.806c-6.462,3.731-13.793,5.703-21.199,5.703  c-15.164,0-29.287-8.146-36.858-21.259C46.002,78.928,44.494,67.475,47.432,56.51z M113.484,77.509h-50v-20h50V77.509z" fill="#ff0000"/>
<g>
</g>
<g>
</g>
<g>
</g>
<g>
</g>
<g>
</g>
<g>
</g>
<g>
</g>
<g>
</g>
<g>
</g>
<g>
</g>
<g>
</g>
<g>
</g>
<g>
</g>
<g>
</g>
<g>
</g>
</svg>
